<!-- Generated by IcoMoon.io -->
<svg version="1.1" xmlns="http://www.w3.org/2000/svg" width="32" height="32" viewBox="0 0 32 32">
<title>ask</title>
<path d="M23.803 7.853c-2.166-0.32-4.256-0.774-6.46-0.476-3.338 0.451-6.439 2.278-8.156 5.217-0.836 1.431-1.336 3.053-1.453 4.705-0.141 1.995-0.257 4.166 1.079 5.822 1.138 1.411 3.193 1.857 4.926 1.458 1.012-0.233 1.856-0.646 2.589-1.392 0.389-0.397 1.751-1.698 1.751-2.313 0 0.001-0.231 2.907-0.264 3.407l0.347-0.050c0.94 0.021 3.959 0.099 3.959 0.099 0.033-0.396 0.371-3.73 0.478-4.932 0.083-0.918 1.652-11.419 1.749-11.398l-0.545-0.148zM19.003 11.961c-0.095 0.197-0.366 2.052-0.495 2.474-0.28 0.912-0.36 1.889-0.778 2.785-0.682 1.46-1.202 3.511-3.082 3.648-2.054 0.151-2.226-2.073-2.029-3.612 0.118-0.923 0.099-1.684 0.492-2.526 0.373-0.8 0.864-1.618 1.448-2.285 0.566-0.646 1.509-1.284 2.364-1.474 0.54-0.12 1.814 0.051 2.178 0.149l-0.099 0.842z"></path>
</svg>
