<!-- Generated by IcoMoon.io -->
<svg version="1.1" xmlns="http://www.w3.org/2000/svg" width="32" height="32" viewBox="0 0 32 32">
<title>bookmark</title>
<path d="M29.124 1.058c-0.275-0.395-0.645-0.684-1.11-0.867-0.296-0.127-0.606-0.19-0.931-0.19v-0h-22.165c-0.324 0-0.634 0.064-0.93 0.19-0.465 0.183-0.835 0.472-1.11 0.867s-0.412 0.832-0.412 1.311v27.262c0 0.48 0.138 0.916 0.412 1.312s0.645 0.684 1.11 0.867c0.296 0.127 0.606 0.19 0.93 0.19 0.663 0 1.248-0.233 1.756-0.698l9.327-8.968 9.327 8.968c0.494 0.45 1.079 0.676 1.755 0.676 0.353 0 0.663-0.056 0.931-0.169 0.465-0.183 0.835-0.472 1.11-0.868s0.412-0.832 0.412-1.311v-27.262c0-0.48-0.138-0.916-0.412-1.311z"></path>
</svg>
