<!-- Generated by IcoMoon.io -->
<svg version="1.1" xmlns="http://www.w3.org/2000/svg" width="32" height="32" viewBox="0 0 32 32">
<title>close</title>
<path d="M18.436 16l11.734-11.734c0.673-0.673 0.673-1.763 0-2.435-0.672-0.673-1.762-0.673-2.435 0l-11.734 11.734-11.736-11.734c-0.672-0.673-1.763-0.673-2.435 0-0.672 0.672-0.672 1.762 0 2.435l11.735 11.734-11.735 11.735c-0.672 0.672-0.672 1.763 0 2.435 0.337 0.337 0.778 0.504 1.217 0.504 0.441 0 0.881-0.168 1.217-0.504l11.735-11.735 11.734 11.735c0.337 0.337 0.778 0.504 1.218 0.504 0.441 0 0.882-0.168 1.217-0.504 0.673-0.673 0.673-1.763 0-2.435l-11.732-11.735z"></path>
</svg>
