<!-- Generated by IcoMoon.io -->
<svg version="1.1" xmlns="http://www.w3.org/2000/svg" width="32" height="32" viewBox="0 0 32 32">
<title>question</title>
<path d="M23.271 2.193c-2.027-1.462-4.573-2.193-7.637-2.193-2.332 0-4.299 0.515-5.898 1.543-2.536 1.611-3.885 4.346-4.047 8.203h5.878c0-1.123 0.328-2.205 0.983-3.249s1.769-1.563 3.338-1.563c1.596 0 2.695 0.423 3.296 1.269 0.602 0.847 0.903 1.784 0.903 2.812 0 0.893-0.449 1.712-0.989 2.457-0.297 0.434-0.689 0.833-1.176 1.198 0 0-3.188 2.044-4.587 3.686-0.812 0.953-0.885 2.379-0.956 4.426-0.005 0.145 0.051 0.446 0.56 0.446s4.118 0 4.571 0 0.548-0.338 0.554-0.484c0.032-0.746 0.116-1.126 0.251-1.556 0.257-0.813 0.956-1.523 1.74-2.132l1.618-1.117c1.46-1.137 2.626-2.071 3.14-2.803 0.879-1.204 1.496-2.686 1.496-4.446 0-2.869-1.014-5.035-3.040-6.497zM15.54 24.753c-2.026-0.060-3.697 1.341-3.761 3.538s1.526 3.647 3.552 3.707c2.115 0.063 3.741-1.293 3.805-3.489 0.063-2.197-1.481-3.693-3.596-3.756z"></path>
</svg>
