<svg style="position: absolute; width: 0; height: 0; overflow: hidden;" version="1.1" xmlns="http://www.w3.org/2000/svg"
    xmlns:xlink="http://www.w3.org/1999/xlink">
    <defs>
        <symbol id="icon-close" viewBox="0 0 32 32">
            <title>close</title>
            <path d="M18.436 16l11.734-11.734c0.673-0.673 0.673-1.763 0-2.435-0.672-0.673-1.762-0.673-2.435 0l-11.734 11.734-11.736-11.734c-0.672-0.673-1.763-0.673-2.435 0-0.672 0.672-0.672 1.762 0 2.435l11.735 11.734-11.735 11.735c-0.672 0.672-0.672 1.763 0 2.435 0.337 0.337 0.778 0.504 1.217 0.504 0.441 0 0.881-0.168 1.217-0.504l11.735-11.735 11.734 11.735c0.337 0.337 0.778 0.504 1.218 0.504 0.441 0 0.882-0.168 1.217-0.504 0.673-0.673 0.673-1.763 0-2.435l-11.732-11.735z"></path>
        </symbol>
        <symbol id="icon-ask" viewBox="0 0 32 32">
            <title>ask</title>
            <path d="M23.803 7.853c-2.166-0.32-4.256-0.774-6.46-0.476-3.338 0.451-6.439 2.278-8.156 5.217-0.836 1.431-1.336 3.053-1.453 4.705-0.141 1.995-0.257 4.166 1.079 5.822 1.138 1.411 3.193 1.857 4.926 1.458 1.012-0.233 1.856-0.646 2.589-1.392 0.389-0.397 1.751-1.698 1.751-2.313 0 0.001-0.231 2.907-0.264 3.407l0.347-0.050c0.94 0.021 3.959 0.099 3.959 0.099 0.033-0.396 0.371-3.73 0.478-4.932 0.083-0.918 1.652-11.419 1.749-11.398l-0.545-0.148zM19.003 11.961c-0.095 0.197-0.366 2.052-0.495 2.474-0.28 0.912-0.36 1.889-0.778 2.785-0.682 1.46-1.202 3.511-3.082 3.648-2.054 0.151-2.226-2.073-2.029-3.612 0.118-0.923 0.099-1.684 0.492-2.526 0.373-0.8 0.864-1.618 1.448-2.285 0.566-0.646 1.509-1.284 2.364-1.474 0.54-0.12 1.814 0.051 2.178 0.149l-0.099 0.842z"></path>
        </symbol>
        <symbol id="icon-bookmark" viewBox="0 0 32 32">
            <title>bookmark</title>
            <path d="M29.124 1.058c-0.275-0.395-0.645-0.684-1.11-0.867-0.296-0.127-0.606-0.19-0.931-0.19v-0h-22.165c-0.324 0-0.634 0.064-0.93 0.19-0.465 0.183-0.835 0.472-1.11 0.867s-0.412 0.832-0.412 1.311v27.262c0 0.48 0.138 0.916 0.412 1.312s0.645 0.684 1.11 0.867c0.296 0.127 0.606 0.19 0.93 0.19 0.663 0 1.248-0.233 1.756-0.698l9.327-8.968 9.327 8.968c0.494 0.45 1.079 0.676 1.755 0.676 0.353 0 0.663-0.056 0.931-0.169 0.465-0.183 0.835-0.472 1.11-0.868s0.412-0.832 0.412-1.311v-27.262c0-0.48-0.138-0.916-0.412-1.311z"></path>
        </symbol>
        <symbol id="icon-bookmark-stroke" viewBox="0 0 32 32">
            <title>bookmark-stroke</title>
            <path d="M29.124 1.058c-0.275-0.395-0.645-0.684-1.11-0.867-0.296-0.127-0.606-0.19-0.931-0.19v-0h-22.165c-0.324 0-0.634 0.064-0.93 0.19-0.465 0.183-0.835 0.472-1.11 0.867s-0.412 0.832-0.412 1.311v27.262c0 0.48 0.138 0.916 0.412 1.312s0.645 0.684 1.11 0.867c0.296 0.127 0.606 0.19 0.93 0.19 0.663 0 1.248-0.233 1.756-0.698l9.327-8.968 9.327 8.968c0.494 0.45 1.079 0.676 1.755 0.676 0.353 0 0.663-0.056 0.931-0.169 0.465-0.183 0.835-0.472 1.11-0.868s0.412-0.832 0.412-1.311v-27.262c0-0.48-0.138-0.916-0.412-1.311zM26.829 28.975l-10.829-10.384-1.882 1.797-8.946 8.587v-26.268h21.657v26.268z"></path>
        </symbol>
        <symbol id="icon-facebook" viewBox="0 0 32 32">
            <title>facebook</title>
            <path d="M23.999 0.007l-4.15-0.007c-4.662 0-7.675 3.091-7.675 7.875v3.631h-4.172c-0.361 0-0.652 0.292-0.652 0.653v5.261c0 0.361 0.292 0.652 0.652 0.652h4.172v13.275c0 0.361 0.292 0.653 0.652 0.653h5.444c0.361 0 0.652-0.292 0.652-0.652v-13.275h4.878c0.361 0 0.652-0.292 0.652-0.652l0.002-5.261c0-0.173-0.069-0.339-0.191-0.461s-0.289-0.191-0.462-0.191h-4.88v-3.078c0-1.479 0.353-2.23 2.28-2.23l2.795-0.001c0.36 0 0.652-0.292 0.652-0.652v-4.885c0-0.36-0.292-0.652-0.651-0.652z"></path>
        </symbol>
        <symbol id="icon-groups" viewBox="0 0 32 32">
            <title>groups</title>
            <path d="M19.311 7.157c1.48 0.928 2.517 2.498 2.706 4.32 0.603 0.282 1.273 0.444 1.983 0.444 2.592 0 4.693-2.101 4.693-4.693s-2.101-4.693-4.693-4.693c-2.567 0.001-4.65 2.064-4.689 4.622zM16.236 16.766c2.592 0 4.693-2.101 4.693-4.693s-2.101-4.693-4.693-4.693c-2.592 0-4.694 2.101-4.694 4.693s2.102 4.693 4.694 4.693zM18.227 17.086h-3.982c-3.313 0-6.009 2.696-6.009 6.009v4.87l0.012 0.076 0.335 0.105c3.162 0.988 5.909 1.317 8.17 1.317 4.416 0 6.976-1.259 7.134-1.339l0.314-0.159h0.034v-4.871c0.001-3.313-2.694-6.009-6.008-6.009zM25.991 12.241h-3.952c-0.043 1.581-0.718 3.005-1.785 4.029 2.945 0.876 5.1 3.607 5.1 6.833v1.501c3.902-0.143 6.15-1.249 6.298-1.323l0.314-0.159h0.034v-4.872c0-3.313-2.696-6.009-6.009-6.009zM8.001 11.922c0.918 0 1.772-0.268 2.496-0.724 0.23-1.5 1.034-2.811 2.183-3.704 0.005-0.088 0.013-0.175 0.013-0.264 0-2.592-2.101-4.693-4.692-4.693-2.593 0-4.693 2.101-4.693 4.693 0 2.591 2.101 4.692 4.693 4.692zM12.216 16.27c-1.062-1.019-1.735-2.435-1.784-4.006-0.147-0.011-0.292-0.022-0.441-0.022h-3.982c-3.313 0-6.009 2.696-6.009 6.009v4.871l0.012 0.075 0.335 0.106c2.537 0.792 4.801 1.157 6.767 1.272v-1.471c0.001-3.226 2.155-5.956 5.101-6.833z"></path>
        </symbol>
        <symbol id="icon-heart" viewBox="0 0 32 32">
            <title>heart</title>
            <path d="M32 10.781c0-4.773-3.869-8.641-8.642-8.641-3.116 0-5.838 1.655-7.358 4.129-1.52-2.473-4.243-4.129-7.359-4.129-4.773 0-8.64 3.869-8.64 8.641 0 2.598 1.151 4.923 2.966 6.506l12.245 12.246c0.209 0.209 0.493 0.327 0.789 0.327s0.579-0.117 0.789-0.327l12.245-12.246c1.815-1.583 2.966-3.908 2.966-6.506z"></path>
        </symbol>
        <symbol id="icon-home" viewBox="0 0 32 32">
            <title>home</title>
            <path d="M16 8.408l-11.413 9.409c0 0.013-0.003 0.033-0.010 0.059s-0.010 0.046-0.010 0.059v9.527c0 0.344 0.126 0.642 0.377 0.893s0.549 0.378 0.893 0.378h7.622v-7.622h5.082v7.622h7.621c0.344 0 0.642-0.126 0.893-0.378s0.378-0.549 0.378-0.893v-9.527c0-0.053-0.007-0.093-0.020-0.119l-11.413-9.409z"></path>
            <path d="M31.779 15.673l-4.347-3.612v-8.098c0-0.185-0.059-0.337-0.179-0.457s-0.271-0.179-0.456-0.179h-3.811c-0.185 0-0.338 0.059-0.457 0.179s-0.178 0.271-0.178 0.457v3.87l-4.843-4.049c-0.423-0.344-0.926-0.516-1.508-0.516s-1.085 0.172-1.508 0.516l-14.271 11.889c-0.132 0.106-0.205 0.248-0.218 0.427s0.033 0.334 0.139 0.467l1.231 1.469c0.106 0.119 0.245 0.192 0.417 0.218 0.159 0.013 0.318-0.033 0.477-0.139l13.735-11.453 13.735 11.453c0.106 0.092 0.245 0.138 0.417 0.138h0.060c0.172-0.026 0.31-0.099 0.417-0.218l1.231-1.469c0.106-0.133 0.152-0.288 0.138-0.467s-0.086-0.32-0.218-0.426z"></path>
        </symbol>
        <symbol id="icon-question" viewBox="0 0 32 32">
            <title>question</title>
            <path d="M23.271 2.193c-2.027-1.462-4.573-2.193-7.637-2.193-2.332 0-4.299 0.515-5.898 1.543-2.536 1.611-3.885 4.346-4.047 8.203h5.878c0-1.123 0.328-2.205 0.983-3.249s1.769-1.563 3.338-1.563c1.596 0 2.695 0.423 3.296 1.269 0.602 0.847 0.903 1.784 0.903 2.812 0 0.893-0.449 1.712-0.989 2.457-0.297 0.434-0.689 0.833-1.176 1.198 0 0-3.188 2.044-4.587 3.686-0.812 0.953-0.885 2.379-0.956 4.426-0.005 0.145 0.051 0.446 0.56 0.446s4.118 0 4.571 0 0.548-0.338 0.554-0.484c0.032-0.746 0.116-1.126 0.251-1.556 0.257-0.813 0.956-1.523 1.74-2.132l1.618-1.117c1.46-1.137 2.626-2.071 3.14-2.803 0.879-1.204 1.496-2.686 1.496-4.446 0-2.869-1.014-5.035-3.040-6.497zM15.54 24.753c-2.026-0.060-3.697 1.341-3.761 3.538s1.526 3.647 3.552 3.707c2.115 0.063 3.741-1.293 3.805-3.489 0.063-2.197-1.481-3.693-3.596-3.756z"></path>
        </symbol>
        <symbol id="icon-search" viewBox="0 0 32 32">
            <title>search</title>
            <path d="M30.978 29.147l-7.616-7.921c1.958-2.328 3.031-5.257 3.031-8.306 0-7.124-5.796-12.92-12.92-12.92s-12.92 5.796-12.92 12.92 5.796 12.92 12.92 12.92c2.674 0 5.223-0.807 7.402-2.338l7.674 7.981c0.321 0.333 0.752 0.517 1.214 0.517 0.438 0 0.853-0.167 1.168-0.47 0.67-0.644 0.691-1.713 0.047-2.383zM13.473 3.37c5.266 0 9.55 4.284 9.55 9.55s-4.284 9.55-9.55 9.55-9.55-4.284-9.55-9.55 4.284-9.55 9.55-9.55z"></path>
        </symbol>
        <symbol id="icon-star" viewBox="0 0 32 32">
            <title>star</title>
            <path d="M16.756 1.245l4.070 9.634 10.421 0.895c0.723 0.062 1.017 0.964 0.468 1.439l-7.904 6.848 2.369 10.188c0.164 0.708-0.603 1.265-1.224 0.889l-8.956-5.401-8.956 5.401c-0.623 0.375-1.388-0.182-1.224-0.889l2.369-10.188-7.906-6.85c-0.549-0.475-0.256-1.377 0.468-1.439l10.421-0.895 4.070-9.632c0.283-0.67 1.23-0.67 1.513 0z"></path>
        </symbol>
        <symbol id="icon-twitter" viewBox="0 0 32 32">
            <title>twitter</title>
            <path d="M31.275 5.924c-0.503 0.223-1.020 0.411-1.548 0.564 0.625-0.707 1.102-1.539 1.393-2.45 0.065-0.204-0.002-0.427-0.17-0.561s-0.4-0.15-0.585-0.040c-1.122 0.665-2.332 1.143-3.6 1.423-1.278-1.249-3.014-1.96-4.808-1.96-3.788 0-6.87 3.082-6.87 6.869 0 0.298 0.019 0.595 0.056 0.888-4.7-0.413-9.070-2.723-12.071-6.404-0.107-0.131-0.272-0.202-0.44-0.188s-0.32 0.108-0.406 0.255c-0.609 1.044-0.93 2.239-0.93 3.454 0 1.655 0.591 3.226 1.635 4.453-0.317-0.11-0.625-0.247-0.919-0.411-0.158-0.088-0.35-0.086-0.507 0.003s-0.255 0.255-0.259 0.436c-0.001 0.030-0.001 0.061-0.001 0.092 0 2.471 1.33 4.695 3.363 5.908-0.175-0.017-0.349-0.043-0.523-0.076-0.179-0.034-0.363 0.029-0.483 0.165s-0.161 0.326-0.105 0.5c0.753 2.349 2.69 4.078 5.032 4.604-1.943 1.217-4.164 1.854-6.496 1.854-0.487 0-0.976-0.029-1.455-0.085-0.238-0.028-0.465 0.112-0.546 0.338s0.005 0.479 0.207 0.609c2.996 1.921 6.46 2.936 10.018 2.936 6.994 0 11.369-3.298 13.808-6.065 3.041-3.45 4.785-8.016 4.785-12.528 0-0.188-0.003-0.379-0.009-0.569 1.2-0.904 2.233-1.998 3.073-3.255 0.128-0.191 0.114-0.443-0.034-0.619s-0.394-0.233-0.604-0.14z"></path>
        </symbol>
        <symbol id="icon-copy" viewBox="0 0 561 561">
            <path d="M395.25,0h-306c-28.05,0-51,22.95-51,51v357h51V51h306V0z M471.75,102h-280.5c-28.05,0-51,22.95-51,51v357    c0,28.05,22.95,51,51,51h280.5c28.05,0,51-22.95,51-51V153C522.75,124.95,499.8,102,471.75,102z M471.75,510h-280.5V153h280.5V510    z"/>
        </symbol>
        <symbol id="icon-user" viewBox="0 0 32 32">
            <title>user</title>
            <path d="M16 15.65c3.558 0 6.442-3.503 6.442-7.825s-0.947-7.825-6.442-7.825-6.442 3.503-6.442 7.825c0 4.322 2.884 7.825 6.442 7.825z"></path>
            <path d="M3.832 27.598c-0.001-0.264-0.002-0.074 0 0v0z"></path>
            <path d="M28.168 27.804c0.003-0.072 0.001-0.5 0 0v0z"></path>
            <path d="M28.154 27.282c-0.119-7.528-1.103-9.674-8.626-11.031 0 0-1.059 1.35-3.528 1.35s-3.528-1.35-3.528-1.35c-7.442 1.343-8.485 3.456-8.622 10.787-0.011 0.599-0.016 0.63-0.018 0.561 0 0.13 0.001 0.371 0.001 0.791 0 0 1.791 3.611 12.167 3.611s12.167-3.611 12.167-3.611c0-0.27 0-0.457 0-0.585-0.002 0.043-0.006-0.040-0.014-0.522z"></path>
        </symbol>
    </defs>
</svg>